<?xml version="1.0" encoding="UTF-8"?>
<svg version="1.1" xmlns="http://www.w3.org/2000/svg" width="1314" height="953">
<path d="M0 0 C2.7048564 0.90010633 5.4246369 1.74711631 8.14501953 2.59912109 C30.95075972 9.9171987 52.13260333 20.41205148 71.32861328 34.77490234 C72.37533203 35.53158203 73.42205078 36.28826172 74.50048828 37.06787109 C81.09077074 41.89107005 87.33034272 47.0685664 93.51611328 52.39208984 C96.19963795 54.73234009 96.19963795 54.73234009 98.70361328 56.47021484 C99.23986328 56.90076172 99.77611328 57.33130859 100.32861328 57.77490234 C100.32861328 58.43490234 100.32861328 59.09490234 100.32861328 59.77490234 C100.88548828 60.00177734 101.44236328 60.22865234 102.01611328 60.46240234 C105.00066077 62.1563347 106.95515373 64.29104933 109.32861328 66.77490234 C110.10011719 67.51546875 110.10011719 67.51546875 110.88720703 68.27099609 C115.68076688 72.88742671 119.8461033 77.91811494 123.99414062 83.11523438 C125.49417041 84.9808038 127.01429623 86.82902627 128.53564453 88.67724609 C129.63358155 90.022069 130.73124013 91.36711928 131.82861328 92.71240234 C132.35737061 93.35113281 132.88612793 93.98986328 133.4309082 94.64794922 C133.92308838 95.25574219 134.41526855 95.86353516 134.92236328 96.48974609 C135.36257813 97.02720459 135.80279297 97.56466309 136.25634766 98.1184082 C137.46024975 99.97826151 137.90729887 101.61213543 138.32861328 103.77490234 C127.32332328 101.04309277 120.74141391 94.42447063 113.34033203 86.18823242 C82.33560527 51.73552888 23.44341583 38.93672518 -20.77514648 36.04858398 C-71.17952138 33.51567992 -116.77734103 49.10762127 -155.67138672 80.77490234 C-156.39197266 81.35111328 -157.11255859 81.92732422 -157.85498047 82.52099609 C-161.56428931 85.56940359 -164.69529744 88.9295313 -167.79638672 92.59130859 C-169.81716768 94.94467643 -171.92972828 97.19507898 -174.04638672 99.46240234 C-210.70009643 140.16108851 -223.57964676 196.44621571 -221.67138672 249.77490234 C-218.70341127 295.6490464 -201.97430601 338.35434233 -170.28857422 371.84912109 C-168.67138672 373.77490234 -168.67138672 373.77490234 -168.67138672 375.77490234 C-168.01138672 375.77490234 -167.35138672 375.77490234 -166.67138672 375.77490234 C-165.24145508 377.22387695 -165.24145508 377.22387695 -163.57373047 379.23974609 C-159.6690035 383.82944199 -155.50468752 388.08966617 -151.23388672 392.33740234 C-150.52167969 393.05347656 -149.80947266 393.76955078 -149.07568359 394.50732422 C-144.43812453 399.13645902 -139.64756598 403.51402911 -134.67138672 407.77490234 C-133.48063349 408.80931191 -132.29051322 409.8444506 -131.10107422 410.88037109 C-127.94560014 413.61830575 -124.78558536 416.3509764 -121.625 419.08300781 C-119.75014728 420.70669306 -117.88031058 422.33598513 -116.01123047 423.96630859 C-109.47661858 429.64237798 -102.8549007 435.00701901 -95.80419922 440.03271484 C-95.10037109 440.60763672 -94.39654297 441.18255859 -93.67138672 441.77490234 C-93.67138672 442.43490234 -93.67138672 443.09490234 -93.67138672 443.77490234 C-92.88054687 444.11521484 -92.88054687 444.11521484 -92.07373047 444.46240234 C-88.85116144 446.22302542 -86.08631731 448.48288306 -83.23388672 450.77490234 C-81.97524438 451.77549667 -80.71611925 452.77548395 -79.45654297 453.77490234 C-78.82248535 454.27892578 -78.18842773 454.78294922 -77.53515625 455.30224609 C-74.76878517 457.48809236 -71.97177326 459.63292334 -69.17138672 461.77490234 C-64.72804367 465.17924469 -60.31551252 468.61979761 -55.92138672 472.08740234 C-50.73182984 476.18212214 -45.49464615 480.20966351 -40.23388672 484.21240234 C-33.50407788 489.33724157 -26.87462256 494.57354928 -20.28466797 499.87646484 C-16.76867173 502.70399446 -13.22397757 505.49357138 -9.67138672 508.27490234 C4.24244803 519.17906276 18.02455127 530.24309221 31.49536133 541.69140625 C34.88833714 544.57069045 38.3114277 547.40705561 41.76611328 550.21240234 C52.05542515 558.61335785 62.01895133 567.2820035 71.64770508 576.43554688 C74.88035708 579.50508533 78.14554869 582.5124458 81.51220703 585.43505859 C84.45747573 587.99194415 87.279527 590.61779059 90.01611328 593.39990234 C90.72123047 594.11404297 91.42634766 594.82818359 92.15283203 595.56396484 C93.22984375 596.65837891 93.22984375 596.65837891 94.32861328 597.77490234 C96.94102693 600.39581165 99.56224339 603.00730357 102.19580078 605.60693359 C107.18496358 610.54272319 112.11476403 615.47164656 116.66064453 620.82568359 C119.30527162 623.91624311 122.0739135 626.89596938 124.82470703 629.89208984 C126.32861328 631.77490234 126.32861328 631.77490234 126.32861328 633.77490234 C126.98861328 633.77490234 127.64861328 633.77490234 128.32861328 633.77490234 C129.77392578 635.39208984 129.77392578 635.39208984 131.45361328 637.64990234 C133.91487095 640.91473284 136.41797764 644.11808618 139.01611328 647.27490234 C144.81634333 654.51116613 150.05742432 662.15013099 155.32861328 669.77490234 C155.77527344 670.41621094 156.22193359 671.05751953 156.68212891 671.71826172 C178.24331866 702.76768368 194.50257897 739.08415233 199.32861328 776.77490234 C199.44140625 777.60650879 199.55419922 778.43811523 199.67041016 779.29492188 C204.96274943 819.62160768 202.0161447 865.5736932 184.32861328 902.77490234 C183.84005859 903.82806641 183.35150391 904.88123047 182.84814453 905.96630859 C178.56104245 914.59142846 173.05706478 921.02502266 166.32861328 927.77490234 C165.48556641 928.68369141 165.48556641 928.68369141 164.62548828 929.61083984 C163.32861328 930.77490234 163.32861328 930.77490234 161.32861328 930.77490234 C161.69711973 920.91135837 163.45394083 911.71007289 165.65255737 902.12234497 C166.58828928 898.03009196 167.48939913 893.93030653 168.38720703 889.82958984 C168.56149734 889.03369949 168.73578766 888.23780914 168.9153595 887.4178009 C179.2562386 839.74134834 174.83250526 791.52203362 149.14111328 749.33740234 C141.71237857 738.10988284 133.39912085 727.45977563 124.02319336 717.796875 C121.7567341 715.44483783 120.37772489 713.92223718 119.32861328 710.77490234 C118.01474427 710.07065066 116.67848812 709.40740543 115.32861328 708.77490234 C113.71630859 707.3737793 113.71630859 707.3737793 112.15673828 705.76318359 C111.57891602 705.1736792 111.00109375 704.5841748 110.40576172 703.97680664 C109.50132324 703.04155151 109.50132324 703.04155151 108.57861328 702.08740234 C104.25874426 697.692497 99.94434496 693.39006039 95.23876953 689.40380859 C92.95057388 687.45252518 90.73762268 685.42672547 88.51611328 683.39990234 C78.2904391 674.19834727 67.39629587 665.92396757 56.32861328 657.77490234 C55.74740723 657.34564453 55.16620117 656.91638672 54.56738281 656.47412109 C33.90670132 641.27268537 12.00551579 627.1788497 -11.11230469 616.02880859 C-14.24244954 614.49509137 -17.34957205 612.91732352 -20.45654297 611.33740234 C-35.47839217 603.71366261 -50.60582619 596.56695156 -66.08300781 589.90039062 C-71.34238831 587.61348777 -76.52650705 585.17162199 -81.70410156 582.70556641 C-83.95454964 581.64094639 -86.2132499 580.59486425 -88.47216797 579.54833984 C-100.60497853 573.89367119 -112.38175922 567.73277595 -124.07275391 561.21679688 C-126.5272884 559.85485769 -128.9913231 558.51250593 -131.46044922 557.17724609 C-141.19912282 551.88753863 -150.55519103 546.16664307 -159.78173828 540.02832031 C-161.49509805 538.89183594 -163.21937373 537.77185109 -164.94482422 536.65380859 C-171.88174976 532.12933091 -178.46469849 527.22421294 -184.96972656 522.10888672 C-186.72423461 520.73347324 -188.48790181 519.37052419 -190.25341797 518.00927734 C-197.33028219 512.53235824 -204.07906819 506.83333592 -210.67138672 500.77490234 C-211.95920853 499.64550305 -213.25074093 498.52031735 -214.54638672 497.39990234 C-222.04412235 490.8602952 -229.4678958 484.19047251 -236.36669922 477.01708984 C-237.6727504 475.65219591 -237.6727504 475.65219591 -239.67138672 474.77490234 C-239.67138672 474.11490234 -239.67138672 473.45490234 -239.67138672 472.77490234 C-240.56470703 472.38818359 -240.56470703 472.38818359 -241.47607422 471.99365234 C-243.86613042 470.66678841 -245.07641784 469.38380891 -246.79638672 467.27490234 C-249.61201832 463.93964775 -252.56116722 460.83785406 -255.67138672 457.77490234 C-259.16899069 454.30880832 -262.53096349 450.80525971 -265.72216797 447.05615234 C-267.21698511 445.30670704 -268.74081515 443.58201666 -270.27685547 441.86865234 C-305.46351685 402.34456057 -323.36301894 353.41287525 -330.32836914 301.59472656 C-330.47636963 300.51594238 -330.62437012 299.4371582 -330.77685547 298.32568359 C-330.96477661 296.89736206 -330.96477661 296.89736206 -331.15649414 295.44018555 C-331.56333051 292.78374082 -331.56333051 292.78374082 -332.68540955 290.52677917 C-333.86390623 287.23757754 -333.93926061 284.57247034 -333.96191406 281.07958984 C-333.96863129 280.42674515 -333.97534851 279.77390045 -333.98226929 279.10127258 C-334.00120492 276.95073741 -334.00517248 274.80051564 -334.00732422 272.64990234 C-334.01375988 271.1411934 -334.0204888 269.63248569 -334.02749634 268.1237793 C-334.03946138 264.95976883 -334.04317843 261.79586742 -334.04199219 258.63183594 C-334.04179011 254.61192847 -334.06897945 250.5927368 -334.10353661 246.57299805 C-334.1259825 243.45335806 -334.12982423 240.33388477 -334.12877274 237.21417236 C-334.13110655 235.73445187 -334.1398022 234.25472518 -334.15543747 232.77508545 C-334.24805511 223.09679321 -332.93556221 214.91457351 -329.67138672 205.77490234 C-329.05047782 203.45779121 -328.44995206 201.13487093 -327.89013672 198.80224609 C-327.60525391 197.635 -327.32037109 196.46775391 -327.02685547 195.26513672 C-326.45565388 192.89295479 -325.88534407 190.52055796 -325.31591797 188.14794922 C-322.68722384 177.38933457 -319.47797416 167.00444444 -314.92138672 156.89990234 C-314.5763208 156.13234619 -314.23125488 155.36479004 -313.87573242 154.57397461 C-301.48381172 127.49741688 -282.80308014 101.63109837 -262.67138672 79.77490234 C-261.41604912 78.36296327 -260.16568798 76.946577 -258.92138672 75.52490234 C-258.35806641 74.88166016 -257.79474609 74.23841797 -257.21435547 73.57568359 C-255.8513282 71.98490999 -254.53844688 70.35146512 -253.23388672 68.71240234 C-250.57974245 65.66984672 -247.75619545 63.15323976 -244.68701172 60.54443359 C-242.86414628 58.94412731 -241.2110065 57.28620459 -239.54638672 55.52490234 C-234.61672031 50.50499033 -228.9180652 46.37648573 -223.35791016 42.08984375 C-221.03217907 40.27652765 -218.76122735 38.39843337 -216.48388672 36.52490234 C-211.46701806 32.50487078 -206.14599826 29.13197546 -200.67138672 25.77490234 C-199.67365234 25.13681641 -198.67591797 24.49873047 -197.64794922 23.84130859 C-189.26367162 18.53126611 -180.63729632 14.01273561 -171.67138672 9.77490234 C-170.95289551 9.43426758 -170.2344043 9.09363281 -169.49414062 8.74267578 C-116.179487 -16.30637474 -55.73622724 -18.89252835 0 0 Z " fill="#FE0000" transform="translate(333.67138671875,12.22509765625)"/>
<path d="M0 0 C-1.5041726 4.80004328 -3.50727472 8.5861286 -6.375 12.6875 C-7.28852484 14.02593563 -8.19988833 15.36584835 -9.109375 16.70703125 C-9.82383789 17.76011475 -9.82383789 17.76011475 -10.55273438 18.83447266 C-12.98201172 22.46937314 -15.30252956 26.17128322 -17.625 29.875 C-22.46894182 37.58250519 -27.34657169 45.26768376 -32.25 52.9375 C-32.8992041 53.95505371 -33.5484082 54.97260742 -34.21728516 56.02099609 C-46.99734946 75.99734946 -46.99734946 75.99734946 -49 78 C-50.35905388 78.09957628 -51.72323007 78.13029484 -53.08592415 78.13307858 C-53.97186418 78.13731962 -54.85780421 78.14156067 -55.7705909 78.14593023 C-56.75509504 78.1455441 -57.73959917 78.14515797 -58.75393677 78.14476013 C-59.79115808 78.14828698 -60.8283794 78.15181382 -61.89703166 78.15544754 C-65.40157367 78.1661929 -68.90608856 78.16982563 -72.41064453 78.17358398 C-74.91171892 78.17988487 -77.41279217 78.18665014 -79.91386414 78.19384766 C-85.31481869 78.20855134 -90.71576812 78.2203436 -96.11673355 78.22979546 C-103.93333487 78.24365269 -111.74990368 78.26483899 -119.56648169 78.28822399 C-132.25720406 78.3261749 -144.94793234 78.36112973 -157.63867188 78.39282227 C-158.39887697 78.39472276 -159.15908206 78.39662325 -159.94232367 78.39858133 C-170.72186526 78.42539195 -181.50141139 78.44926928 -192.28096233 78.47196633 C-193.03934828 78.47356363 -193.79773422 78.47516094 -194.57910156 78.47680664 C-195.33656489 78.47840011 -196.09402822 78.47999357 -196.87444498 78.48163532 C-209.5092029 78.50841325 -222.14392642 78.54281946 -234.7786473 78.58346039 C-242.57352472 78.60822652 -250.36836512 78.6265582 -258.16327564 78.636616 C-264.14027785 78.64488837 -270.11720327 78.66339163 -276.09417152 78.68567657 C-278.54553616 78.6931549 -280.99691387 78.69723331 -283.44828987 78.69767189 C-286.79368167 78.69875377 -290.13881391 78.71199639 -293.48416138 78.72825623 C-294.45528118 78.72563937 -295.42640099 78.72302252 -296.42694867 78.72032636 C-301.66154613 78.76009035 -306.08388413 79.13555528 -311 81 C-315.71673714 85.97877809 -316.6006347 92.44842612 -318 99 C-316.31282461 99.31424786 -314.62524051 99.62630155 -312.9375 99.9375 C-311.99777344 100.11152344 -311.05804687 100.28554688 -310.08984375 100.46484375 C-290.19905655 103.90989792 -269.59563891 103.07660247 -249.46875 102.9921875 C-248.46465088 102.98835304 -247.46055176 102.98451859 -246.42602539 102.98056793 C-237.00479512 102.94374577 -227.58364081 102.89907543 -218.16259766 102.82861328 C-122.4808538 102.13775857 -122.4808538 102.13775857 -93.03125 129.7734375 C-82.35974433 141.47104949 -77.32804583 156.77318309 -77.81640625 172.515625 C-80.28452445 205.91399039 -98.00252823 231.01394871 -122.74511719 252.51660156 C-135.33719734 262.92198853 -150.93038406 269.84993138 -166.5 274.4375 C-167.24386963 274.66018555 -167.98773926 274.88287109 -168.75415039 275.11230469 C-186.92598043 280.03498764 -205.46662283 280.42866823 -224.15942383 280.34057617 C-226.71421295 280.33972783 -229.2690028 280.34020907 -231.8237915 280.34190369 C-237.27794228 280.34258128 -242.73195323 280.33421326 -248.18607521 280.31719017 C-256.0713594 280.29259538 -263.95659182 280.28497422 -271.84191021 280.2812262 C-284.64162555 280.27469343 -297.44128287 280.25481945 -310.2409668 280.22631836 C-322.65958368 280.1986949 -335.07818469 280.17750213 -347.49682617 280.16479492 C-348.26494083 280.16400675 -349.03305549 280.16321858 -349.82444636 280.16240653 C-353.67863739 280.15849083 -357.53282854 280.15469985 -361.38701975 280.15097082 C-393.2580557 280.119974 -425.12901875 280.06699969 -457 280 C-456.19623337 272.6991198 -455.02746707 268.80285875 -449.57421875 263.5625 C-443.7030892 257.73507613 -438.40147588 251.37229942 -433.28515625 244.8828125 C-430.45335329 241.31038415 -427.56958914 237.78188145 -424.6875 234.25 C-414.47795574 222.58665136 -414.47795574 222.58665136 -405.85065079 209.85093117 C-403.49155321 207.49147618 -401.70049879 207.514736 -398.44806457 207.46682584 C-397.68884523 207.4759505 -396.92962589 207.48507516 -396.1473999 207.49447632 C-395.33870964 207.4883862 -394.53001938 207.48229608 -393.69682336 207.47602141 C-390.97695496 207.46035995 -388.2579595 207.47323462 -385.53808594 207.48583984 C-383.59155725 207.48038145 -381.64503287 207.47314145 -379.69851685 207.46424866 C-375.49963846 207.44887948 -371.30100455 207.44612317 -367.10210419 207.45301437 C-360.4522699 207.463789 -353.80269121 207.44642893 -347.15289307 207.42520142 C-336.62043416 207.39489616 -326.08805065 207.38324363 -315.55555177 207.37962496 C-296.73563112 207.37299531 -277.91576405 207.34379054 -259.09590745 207.2945286 C-252.49754536 207.27810493 -245.89929291 207.27259988 -239.30091238 207.27611899 C-235.17459861 207.27655912 -231.04832542 207.26894518 -226.92202377 207.25944328 C-225.02228078 207.25678243 -223.12252934 207.25747441 -221.22278976 207.26195335 C-199.07407418 207.88346601 -199.07407418 207.88346601 -179 200 C-174.56859458 195.22771724 -173.45579696 189.19816586 -172 183 C-187.3057311 178.55926564 -202.20090189 176.80294745 -218.125 176.8125 C-219.31544922 176.81185547 -220.50589844 176.81121094 -221.73242188 176.81054688 C-231.4735072 176.8646367 -241.17057953 177.32805749 -250.89578247 177.85888672 C-267.20009098 178.74235918 -283.47818587 179.24046312 -299.80761719 179.29956055 C-302.01874351 179.30802556 -304.22985777 179.32149528 -306.44091797 179.34057617 C-336.01914794 179.56991758 -370.40490623 177.68971545 -393 156 C-407.67048807 140.46190243 -411.66960234 121.89088557 -411.46826172 101.17138672 C-410.75460695 76.66425765 -399.28235025 56.19800487 -381.78125 39.453125 C-354.14268845 15.07529262 -317.6531541 2.24948372 -281.01245117 1.70336914 C-279.90910997 1.68410055 -278.80576878 1.66483196 -277.668993 1.64497948 C-273.89788541 1.5818575 -270.12671772 1.52664502 -266.35546875 1.47265625 C-264.99271197 1.45211973 -263.62995653 1.43149394 -262.26720238 1.41078377 C-217.63814309 0.74113537 -173.00121434 0.6621534 -128.36817634 0.48259032 C-115.95688395 0.43249301 -103.54561298 0.37777802 -91.13434088 0.32291877 C-72.81488287 0.2421254 -54.49541798 0.1627628 -36.17593384 0.08810806 C-34.22530773 0.08013355 -32.27468198 0.07207323 -30.32405663 0.06391716 C-20.21596779 0.0217687 -10.10819699 -0.01264562 0 0 Z " fill="#000000" transform="translate(1314,262)"/>
<path d="M0 0 C0.8059259 -0.00131927 1.61185181 -0.00263855 2.44219971 -0.0039978 C5.05004797 -0.00590454 7.65778775 0.00040251 10.265625 0.0078125 C11.15169434 0.00869873 12.03776367 0.00958496 12.95068359 0.01049805 C28.15792591 0.02836305 43.3256533 0.37653213 58.515625 1.1328125 C57.97086014 9.35803834 56.67517918 17.26429007 54.953125 25.3203125 C54.73896439 26.32730698 54.73896439 26.32730698 54.52047729 27.35464478 C46.27213114 65.86570748 35.88331937 103.99827162 26.00186157 142.11468506 C19.59146274 166.84487999 13.30349945 191.60558897 7.04222488 216.37392807 C6.2725552 219.41790417 5.5023049 222.46173281 4.73190308 225.50552368 C3.50799799 230.34165264 2.28571175 235.17818802 1.06468773 240.01504517 C0.6139235 241.79999646 0.16274021 243.58484198 -0.28891563 245.36956787 C-0.91825289 247.85712178 -1.54576388 250.34513012 -2.17285156 252.83325195 C-2.43623243 253.87206245 -2.43623243 253.87206245 -2.70493412 254.93185902 C-4.72831874 262.97771384 -6.58341447 271.05373023 -8.484375 279.1328125 C-36.534375 279.1328125 -64.584375 279.1328125 -93.484375 279.1328125 C-92.8275204 275.84853948 -92.16701407 272.91852023 -91.171875 269.765625 C-87.24205391 256.99608527 -83.96516266 244.1506743 -80.984375 231.1328125 C-80.81131836 230.37873108 -80.63826172 229.62464966 -80.45996094 228.84771729 C-76.6752488 212.30441376 -73.11085065 195.71098688 -69.484375 179.1328125 C-145.714375 178.6378125 -145.714375 178.6378125 -223.484375 178.1328125 C-224.804375 183.4128125 -226.124375 188.6928125 -227.484375 194.1328125 C-228.21697974 196.89648851 -228.95905147 199.65771112 -229.71875 202.4140625 C-230.1239998 203.8958691 -230.52875826 205.37781013 -230.93310547 206.85986328 C-231.14368591 207.63106506 -231.35426636 208.40226685 -231.57122803 209.19683838 C-247.27333462 266.87624715 -262.71503428 325.32503768 -273.484375 384.1328125 C-279.71957969 382.96536604 -285.28482709 381.2098559 -291.046875 378.5703125 C-292.20751465 378.04304565 -292.20751465 378.04304565 -293.39160156 377.50512695 C-312.47744568 368.68055215 -332.79323631 357.68660589 -341.79296875 337.62890625 C-344.04674474 329.49239292 -343.21242952 322.61524895 -341.58203125 314.48046875 C-341.35809692 313.3195018 -341.1341626 312.15853485 -340.90344238 310.96238708 C-340.27100839 307.72496319 -339.62400256 304.49127798 -338.96629715 301.25894165 C-338.54162881 299.16950036 -338.12137734 297.07920437 -337.70162964 294.98876953 C-329.40797479 253.8428667 -318.97862138 213.17287282 -308.81066132 172.46018696 C-306.07081029 161.48534926 -303.35376818 150.50490361 -300.640625 139.5234375 C-300.40585072 138.57326374 -300.17107643 137.62308998 -299.92918777 136.64412308 C-298.99191858 132.85066249 -298.05470904 129.0571872 -297.11774635 125.26365089 C-295.5240521 118.81173822 -293.92741518 112.36055866 -292.32958984 105.90966797 C-285.81609767 79.60502592 -279.38639416 53.28061177 -273.02437973 26.93892479 C-272.34953093 24.14517614 -271.6738725 21.35162356 -270.99818039 18.55807877 C-270.54043439 16.66355468 -270.0842355 14.768657 -269.62808228 12.87374878 C-269.35789276 11.7560611 -269.08770325 10.63837341 -268.80932617 9.48681641 C-268.57590012 8.51837799 -268.34247406 7.54993958 -268.10197449 6.55215454 C-267.6356813 4.72552947 -267.08052838 2.92127263 -266.484375 1.1328125 C-238.104375 1.1328125 -209.724375 1.1328125 -180.484375 1.1328125 C-181.609375 10.1328125 -181.609375 10.1328125 -182.51576233 13.58752441 C-182.71865655 14.37102516 -182.92155077 15.15452591 -183.1305933 15.9617691 C-183.35183589 16.79487358 -183.57307848 17.62797806 -183.80102539 18.48632812 C-184.03903838 19.39921349 -184.27705137 20.31209885 -184.52227688 21.2526474 C-185.28744915 24.18271871 -186.05957639 27.11090372 -186.83203125 30.0390625 C-187.30803903 31.85762639 -187.78358632 33.67631088 -188.25866699 35.49511719 C-190.01583136 42.20914295 -191.78188412 48.92083994 -193.546875 55.6328125 C-197.48625 70.6478125 -201.425625 85.6628125 -205.484375 101.1328125 C-127.274375 101.6278125 -127.274375 101.6278125 -47.484375 102.1328125 C-47.484375 99.1628125 -47.484375 96.1928125 -47.484375 93.1328125 C-47.20446777 90.62724304 -47.20446777 90.62724304 -46.80273438 88.65893555 C-46.65074585 87.90014603 -46.49875732 87.14135651 -46.34216309 86.35957336 C-46.17253052 85.56673447 -46.00289795 84.77389557 -45.828125 83.95703125 C-45.65043579 83.09961838 -45.47274658 82.24220551 -45.28967285 81.35881042 C-43.13263655 71.15364663 -40.56384558 61.0501386 -37.984375 50.9453125 C-37.26884513 48.12624155 -36.55477335 45.30680955 -35.84204102 42.48703003 C-35.37832121 40.65428361 -34.91269591 38.82201815 -34.44506836 36.99026489 C-33.36501377 32.7375257 -32.32499432 28.48408013 -31.390625 24.19677734 C-31.22026733 23.42581223 -31.04990967 22.65484711 -30.87438965 21.86051941 C-30.56445703 20.4408063 -30.26474396 19.01880021 -29.97814941 17.5941925 C-28.75326016 12.00446025 -26.09914629 6.68263657 -21.484375 3.1328125 C-14.52854729 0.28724662 -7.40767698 -0.01951109 0 0 Z " fill="#000000" transform="translate(821.484375,262.8671875)"/>
<path d="M0 0 C70.3160767 -2.59474865 148.1214786 22.79609672 200.16943359 70.91748047 C202.63238643 73.12428621 205.18154723 75.14666928 207.79833984 77.16748047 C212.33348478 80.74599327 215.94363351 84.66663262 219.61083984 89.10498047 C221.51063862 91.2216854 223.41558133 93.33350844 225.32568359 95.44091797 C226.61083984 97.10498047 226.61083984 97.10498047 226.61083984 99.10498047 C227.27083984 99.10498047 227.93083984 99.10498047 228.61083984 99.10498047 C231.23855721 102.21046463 233.3786318 105.70939328 235.61083984 109.10498047 C235.99868652 109.6944043 236.3865332 110.28382813 236.78613281 110.89111328 C250.16472806 131.36627338 259.82970358 152.75446296 263.61083984 177.10498047 C263.74103516 177.90548828 263.87123047 178.70599609 264.00537109 179.53076172 C264.94998388 186.42013763 264.61083984 193.06709186 264.61083984 200.10498047 C236.56083984 200.10498047 208.51083984 200.10498047 179.61083984 200.10498047 C179.28083984 193.83498047 178.95083984 187.56498047 178.61083984 181.10498047 C178.24135158 177.80076698 177.86419924 174.61372089 177.29833984 171.35498047 C177.10050903 170.18225586 177.10050903 170.18225586 176.89868164 168.98583984 C172.77613968 145.49955321 163.68416006 123.16106656 148.04443359 104.96044922 C146.61083984 103.10498047 146.61083984 103.10498047 146.61083984 101.10498047 C145.95083984 101.10498047 145.29083984 101.10498047 144.61083984 101.10498047 C143.23583984 99.67138672 143.23583984 99.67138672 141.61083984 97.66748047 C133.2603156 87.93090609 123.43345479 80.8114271 112.61083984 74.10498047 C111.97903809 73.7127832 111.34723633 73.32058594 110.69628906 72.91650391 C81.95976572 55.34258899 47.79585369 46.9100724 14.61083984 43.10498047 C13.37708618 42.96249878 13.37708618 42.96249878 12.1184082 42.81713867 C-44.60784226 36.94817592 -98.42518983 54.44468374 -146.38916016 84.10498047 C-147.08605957 84.53391602 -147.78295898 84.96285156 -148.50097656 85.40478516 C-164.90367232 95.56654708 -179.96317571 107.31456485 -194.38916016 120.10498047 C-195.32373047 120.92740234 -196.25830078 121.74982422 -197.22119141 122.59716797 C-206.61132468 131.02858833 -215.42789377 140.05469138 -224.31176758 149.01196289 C-225.94274923 150.65521189 -227.57902734 152.29320419 -229.21728516 153.92919922 C-238.39503715 163.12345796 -244.69767365 172.49320397 -250.38916016 184.10498047 C-251.04916016 184.10498047 -251.70916016 184.10498047 -252.38916016 184.10498047 C-253.67822266 182.35498047 -253.67822266 182.35498047 -255.01416016 180.10498047 C-255.68318359 178.99123047 -255.68318359 178.99123047 -256.36572266 177.85498047 C-256.70345703 177.27748047 -257.04119141 176.69998047 -257.38916016 176.10498047 C-256.97408203 175.55455078 -256.55900391 175.00412109 -256.13134766 174.43701172 C-251.37807784 168.02308069 -246.92062868 161.44787381 -242.51416016 154.79248047 C-229.3303959 134.92453032 -215.11477565 116.04348197 -199.38916016 98.10498047 C-198.73431641 97.34958984 -198.07947266 96.59419922 -197.40478516 95.81591797 C-195.7432329 93.90284633 -194.06970822 92.00137874 -192.38916016 90.10498047 C-191.68275391 89.30576172 -190.97634766 88.50654297 -190.24853516 87.68310547 C-185.95057896 82.85886892 -181.56271844 78.19366389 -176.92041016 73.69873047 C-175.29569401 72.16571041 -175.29569401 72.16571041 -174.38916016 70.10498047 C-173.72916016 70.10498047 -173.06916016 70.10498047 -172.38916016 70.10498047 C-172.38916016 69.44498047 -172.38916016 68.78498047 -172.38916016 68.10498047 C-170.99072266 66.69482422 -170.99072266 66.69482422 -169.01416016 65.04248047 C-166.69188587 63.08028007 -164.40410219 61.1190983 -162.19384766 59.03076172 C-154.87281527 52.1192108 -146.80288015 46.58125741 -138.38916016 41.10498047 C-137.50647461 40.52514404 -137.50647461 40.52514404 -136.60595703 39.93359375 C-95.76075281 13.37952154 -48.15903661 2.11612362 0 0 Z " fill="#006532" transform="translate(769.38916015625,22.89501953125)"/>
<path d="M0 0 C15.51 0 31.02 0 47 0 C47 13.2 47 26.4 47 40 C60.53 40 74.06 40 88 40 C88 53.86 88 67.72 88 82 C74.47 82 60.94 82 47 82 C47 95.2 47 108.4 47 122 C26.9199262 123.18118081 26.9199262 123.18118081 18.25 123.1875 C17.31929688 123.19974609 16.38859375 123.21199219 15.4296875 123.22460938 C6.7082533 123.24335171 6.7082533 123.24335171 3 121 C-3.28926486 113.97852312 -1.02926392 102.08901116 -0.5625 93.3125 C-0.376875 89.579375 -0.19125 85.84625 0 82 C-12.54 82 -25.08 82 -38 82 C-38 68.14 -38 54.28 -38 40 C-25.46 40 -12.92 40 0 40 C0 26.8 0 13.6 0 0 Z " fill="#006532" transform="translate(350,140)"/>
<path d="M0 0 C7.7798208 6.73341215 10.33734323 20.94289005 13.375 30.3125 C23.38729558 60.96221369 40.95410962 96.56560978 70.9375 111.8125 C88.49136699 120.23200181 107.6794929 120.38908441 126 114 C141.66882023 108.4444271 155.29359009 100.36294833 169 91 C171.70362013 89.15961248 174.41313129 87.32820427 177.125 85.5 C177.77718506 85.05414551 178.42937012 84.60829102 179.10131836 84.14892578 C183.77397778 81 183.77397778 81 186 81 C187.16628143 94.12066608 178.62293505 106.65206016 170.8125 116.5 C154.05236113 136.17125912 132.34579599 154.13242302 105.9375 157.875 C91.12873203 158.85905103 79.27803078 152.96807267 68 144 C67.2884375 143.443125 66.576875 142.88625 65.84375 142.3125 C51.26029955 130.27536629 40.73794724 112.54743735 32 96 C31.66258789 95.36368652 31.32517578 94.72737305 30.97753906 94.07177734 C17.00172078 67.49045271 -1.24072868 30.72871362 0 0 Z " fill="#FD0000" transform="translate(243,196)"/>
<path d="M0 0 C-0.47657292 2.60466582 -0.95614719 5.20871714 -1.4375 7.8125 C-1.63956055 8.91948242 -1.63956055 8.91948242 -1.84570312 10.04882812 C-2.41419737 13.11315076 -3.01309651 16.03928953 -4 19 C-2.9584375 19.10183594 -1.916875 19.20367188 -0.84375 19.30859375 C5.36737558 20.08498445 11.41611896 21.62175674 17.5 23.0625 C18.70398438 23.34416016 19.90796875 23.62582031 21.1484375 23.91601562 C24.09983822 24.60701817 27.05030161 25.30177299 30 26 C30 26.66 30 27.32 30 28 C29.09121094 28.35191406 28.18242188 28.70382812 27.24609375 29.06640625 C2.47451865 38.75253512 -20.53096518 50.85675475 -41 68 C-41.75925781 68.62390625 -42.51851562 69.2478125 -43.30078125 69.890625 C-53.24329066 78.33918222 -61.06369603 88.80211752 -67.31640625 100.20703125 C-69.93131543 104.94321384 -72.77248328 109.50656083 -75.6875 114.0625 C-78.79654952 118.9368778 -81.89997235 123.81046285 -84.8984375 128.75390625 C-85.34872314 129.49181396 -85.79900879 130.22972168 -86.26293945 130.98999023 C-87.11211274 132.38507203 -87.95470428 133.78418719 -88.78979492 135.18774414 C-91.66532138 139.88844046 -91.66532138 139.88844046 -95 141 C-86.88875117 99.69666715 -71.74927115 59.52872804 -42 29 C-41.18660156 28.10152344 -40.37320313 27.20304688 -39.53515625 26.27734375 C-31.1542873 17.30245327 -12.8984891 0 0 0 Z " fill="#006532" transform="translate(740,602)"/>
<path d="M0 0 C1.98 0 3.96 0 6 0 C6 0.66 6 1.32 6 2 C4.02 2 2.04 2 0 2 C0 1.34 0 0.68 0 0 Z " fill="#ED0000" transform="translate(490,951)"/>
</svg>
